<svg xmlns="http://www.w3.org/2000/svg" width="400" height="250" viewBox="0 0 400 250">
  <rect width="400" height="250" fill="#111827"/>
  <rect x="145" y="72" width="110" height="106" rx="12" fill="#1e2a3a" stroke="rgba(124,255,203,0.2)" stroke-width="1.5"/>
  <rect x="165" y="92" width="70" height="60" rx="4" fill="rgba(124,255,203,0.06)" stroke="rgba(124,255,203,0.25)" stroke-width="1"/>
  <rect x="178" y="105" width="44" height="34" rx="2" fill="rgba(124,255,203,0.1)"/>
  <line x1="175" y1="72" x2="175" y2="92" stroke="rgba(124,255,203,0.28)" stroke-width="2" stroke-linecap="round"/>
  <line x1="190" y1="72" x2="190" y2="92" stroke="rgba(124,255,203,0.28)" stroke-width="2" stroke-linecap="round"/>
  <line x1="205" y1="72" x2="205" y2="92" stroke="rgba(124,255,203,0.28)" stroke-width="2" stroke-linecap="round"/>
  <line x1="220" y1="72" x2="220" y2="92" stroke="rgba(124,255,203,0.28)" stroke-width="2" stroke-linecap="round"/>
  <line x1="175" y1="178" x2="175" y2="152" stroke="rgba(124,255,203,0.28)" stroke-width="2" stroke-linecap="round"/>
  <line x1="190" y1="178" x2="190" y2="152" stroke="rgba(124,255,203,0.28)" stroke-width="2" stroke-linecap="round"/>
  <line x1="205" y1="178" x2="205" y2="152" stroke="rgba(124,255,203,0.28)" stroke-width="2" stroke-linecap="round"/>
  <line x1="220" y1="178" x2="220" y2="152" stroke="rgba(124,255,203,0.28)" stroke-width="2" stroke-linecap="round"/>
  <line x1="145" y1="108" x2="165" y2="108" stroke="rgba(124,255,203,0.28)" stroke-width="2" stroke-linecap="round"/>
  <line x1="145" y1="122" x2="165" y2="122" stroke="rgba(124,255,203,0.28)" stroke-width="2" stroke-linecap="round"/>
  <line x1="145" y1="136" x2="165" y2="136" stroke="rgba(124,255,203,0.28)" stroke-width="2" stroke-linecap="round"/>
  <line x1="255" y1="108" x2="235" y2="108" stroke="rgba(124,255,203,0.28)" stroke-width="2" stroke-linecap="round"/>
  <line x1="255" y1="122" x2="235" y2="122" stroke="rgba(124,255,203,0.28)" stroke-width="2" stroke-linecap="round"/>
  <line x1="255" y1="136" x2="235" y2="136" stroke="rgba(124,255,203,0.28)" stroke-width="2" stroke-linecap="round"/>
  <text x="200" y="213" text-anchor="middle" fill="rgba(255,255,255,0.22)" font-size="12" font-family="system-ui, sans-serif" letter-spacing="0.8">Imagen del producto</text>
</svg>
